<?xml version="1.0" encoding="UTF-8"?> <svg xmlns="http://www.w3.org/2000/svg" width="160" height="50" viewBox="0 0 160 50" fill="none"><path d="M89.8026 27.105V14.99H85.625V12.4834H96.821V14.99H92.518V27.105H89.8026Z" fill="black"></path><path d="M89.8026 27.105V14.99H85.625V12.4834H96.821V14.99H92.518V27.105H89.8026Z" fill="url(#paint0_linear_30_201)"></path><path d="M98.418 27.1046V16.1384H100.59V19.585L100.381 18.7494C100.535 18.2203 100.792 17.7399 101.154 17.3082C101.53 16.8765 101.955 16.5353 102.428 16.2847C102.916 16.034 103.417 15.9087 103.932 15.9087C104.169 15.9087 104.392 15.9296 104.601 15.9713C104.824 16.0131 104.998 16.0619 105.123 16.1176L104.559 18.457C104.392 18.3874 104.204 18.3317 103.995 18.2899C103.8 18.2342 103.605 18.2063 103.41 18.2063C103.034 18.2063 102.672 18.2829 102.324 18.4361C101.99 18.5754 101.69 18.7773 101.426 19.0419C101.175 19.2925 100.973 19.5919 100.82 19.9401C100.667 20.2743 100.59 20.6433 100.59 21.0471V27.1046H98.418Z" fill="#02D0DF"></path><path d="M109.966 27.3135C109.061 27.3135 108.232 27.0629 107.48 26.5615C106.742 26.0602 106.151 25.3779 105.705 24.5145C105.259 23.6511 105.037 22.6764 105.037 21.5902C105.037 20.4901 105.259 19.5153 105.705 18.6659C106.164 17.8025 106.777 17.1271 107.543 16.6398C108.323 16.1524 109.193 15.9087 110.154 15.9087C110.725 15.9087 111.247 15.9922 111.721 16.1593C112.194 16.3264 112.605 16.5632 112.953 16.8695C113.315 17.162 113.608 17.5031 113.83 17.893C114.067 18.2829 114.213 18.7007 114.269 19.1463L113.789 18.9792V16.1384H115.961V27.1046H113.789V24.4936L114.29 24.3474C114.206 24.7234 114.032 25.0924 113.768 25.4545C113.517 25.8026 113.19 26.1159 112.786 26.3944C112.396 26.6729 111.957 26.8957 111.47 27.0629C110.997 27.23 110.495 27.3135 109.966 27.3135ZM110.53 25.3291C111.185 25.3291 111.762 25.169 112.264 24.8487C112.765 24.5284 113.155 24.0898 113.433 23.5328C113.726 22.9618 113.872 22.3143 113.872 21.5902C113.872 20.88 113.726 20.2464 113.433 19.6894C113.155 19.1324 112.765 18.6937 112.264 18.3735C111.762 18.0532 111.185 17.893 110.53 17.893C109.889 17.893 109.319 18.0532 108.817 18.3735C108.33 18.6937 107.94 19.1324 107.648 19.6894C107.369 20.2464 107.23 20.88 107.23 21.5902C107.23 22.3143 107.369 22.9618 107.648 23.5328C107.94 24.0898 108.33 24.5284 108.817 24.8487C109.319 25.169 109.889 25.3291 110.53 25.3291Z" fill="#02D0DF"></path><path d="M122.913 27.3135C121.91 27.3135 121.012 27.0698 120.218 26.5824C119.438 26.0811 118.819 25.4057 118.359 24.5563C117.9 23.6929 117.67 22.7112 117.67 21.6111C117.67 20.511 117.893 19.5362 118.338 18.6868C118.798 17.8234 119.417 17.148 120.197 16.6606C120.977 16.1593 121.861 15.9087 122.85 15.9087C123.393 15.9087 123.915 15.9992 124.417 16.1802C124.932 16.3473 125.391 16.5841 125.795 16.8904C126.199 17.1828 126.512 17.5101 126.735 17.8721C126.972 18.2203 127.09 18.5754 127.09 18.9374L126.464 18.9792V11.6475H128.615V27.1046H126.464V24.4936H126.881C126.881 24.8278 126.77 25.162 126.547 25.4963C126.324 25.8165 126.025 26.1159 125.649 26.3944C125.287 26.6729 124.862 26.8957 124.375 27.0629C123.901 27.23 123.414 27.3135 122.913 27.3135ZM123.205 25.4545C123.86 25.4545 124.438 25.2874 124.939 24.9532C125.44 24.619 125.83 24.1664 126.109 23.5954C126.401 23.0106 126.547 22.3491 126.547 21.6111C126.547 20.873 126.401 20.2186 126.109 19.6476C125.83 19.0628 125.44 18.6032 124.939 18.269C124.438 17.9348 123.86 17.7677 123.205 17.7677C122.551 17.7677 121.973 17.9348 121.471 18.269C120.97 18.6032 120.573 19.0628 120.281 19.6476C120.002 20.2186 119.863 20.873 119.863 21.6111C119.863 22.3491 120.002 23.0106 120.281 23.5954C120.573 24.1664 120.97 24.619 121.471 24.9532C121.973 25.2874 122.551 25.4545 123.205 25.4545Z" fill="#02D0DF"></path><path d="M131.305 27.1046V16.1384H133.457V27.1046H131.305ZM132.35 13.7154C131.89 13.7154 131.535 13.5971 131.284 13.3603C131.034 13.1236 130.908 12.7894 130.908 12.3577C130.908 11.9539 131.034 11.6266 131.284 11.376C131.549 11.1253 131.904 11 132.35 11C132.809 11 133.164 11.1184 133.415 11.3551C133.666 11.5918 133.791 11.926 133.791 12.3577C133.791 12.7616 133.659 13.0888 133.394 13.3395C133.143 13.5901 132.795 13.7154 132.35 13.7154Z" fill="#02D0DF"></path><path d="M136.137 27.1046V16.1384H138.289V18.3943L137.913 18.645C138.052 18.1576 138.323 17.712 138.727 17.3082C139.131 16.8904 139.611 16.5562 140.168 16.3055C140.725 16.041 141.296 15.9087 141.881 15.9087C142.717 15.9087 143.413 16.0758 143.97 16.41C144.527 16.7303 144.945 17.2246 145.223 17.893C145.502 18.5614 145.641 19.4039 145.641 20.4205V27.1046H143.49V20.5667C143.49 19.9401 143.406 19.4248 143.239 19.021C143.072 18.6032 142.814 18.3038 142.466 18.1228C142.118 17.9278 141.686 17.8443 141.171 17.8721C140.753 17.8721 140.37 17.9418 140.022 18.081C139.674 18.2064 139.368 18.3874 139.103 18.6241C138.853 18.8608 138.651 19.1393 138.497 19.4596C138.358 19.766 138.289 20.1002 138.289 20.4623V27.1046H137.223C137.042 27.1046 136.861 27.1046 136.68 27.1046C136.499 27.1046 136.318 27.1046 136.137 27.1046Z" fill="#02D0DF"></path><path d="M152.842 31.9089C152.062 31.9089 151.282 31.7835 150.502 31.5329C149.736 31.2961 149.117 30.9828 148.643 30.5929L149.437 28.9219C149.716 29.1308 150.043 29.3118 150.419 29.465C150.795 29.6321 151.192 29.7574 151.609 29.841C152.027 29.9384 152.438 29.9872 152.842 29.9872C153.608 29.9872 154.248 29.8618 154.763 29.6112C155.279 29.3605 155.669 28.9915 155.933 28.5041C156.198 28.0167 156.33 27.411 156.33 26.6869V24.5772L156.56 24.7234C156.49 25.1551 156.26 25.5728 155.87 25.9767C155.495 26.3666 155.021 26.6869 154.45 26.9375C153.879 27.1882 153.294 27.3135 152.696 27.3135C151.651 27.3135 150.718 27.0698 149.897 26.5824C149.089 26.0811 148.448 25.4057 147.975 24.5563C147.501 23.6929 147.265 22.7112 147.265 21.6111C147.265 20.511 147.494 19.5362 147.954 18.6868C148.427 17.8234 149.068 17.148 149.876 16.6606C150.697 16.1593 151.616 15.9087 152.633 15.9087C153.051 15.9087 153.454 15.9644 153.844 16.0758C154.234 16.1733 154.596 16.3195 154.931 16.5144C155.265 16.6955 155.564 16.8974 155.829 17.1202C156.093 17.343 156.309 17.5797 156.476 17.8304C156.643 18.081 156.748 18.3178 156.79 18.5406L156.33 18.7077V16.1384H158.481V26.4362C158.481 27.3135 158.349 28.0864 158.085 28.7548C157.834 29.4371 157.465 30.0081 156.978 30.4676C156.49 30.9411 155.898 31.2961 155.202 31.5329C154.506 31.7835 153.719 31.9089 152.842 31.9089ZM152.925 25.3291C153.608 25.3291 154.213 25.169 154.743 24.8487C155.272 24.5284 155.683 24.0898 155.975 23.5328C156.267 22.9758 156.414 22.3352 156.414 21.6111C156.414 20.887 156.26 20.2464 155.954 19.6894C155.662 19.1185 155.251 18.6728 154.722 18.3526C154.206 18.0323 153.608 17.8721 152.925 17.8721C152.257 17.8721 151.658 18.0392 151.129 18.3735C150.614 18.6937 150.203 19.1393 149.897 19.7103C149.604 20.2673 149.458 20.9009 149.458 21.6111C149.458 22.3213 149.604 22.9618 149.897 23.5328C150.203 24.0898 150.614 24.5284 151.129 24.8487C151.658 25.169 152.257 25.3291 152.925 25.3291Z" fill="#02D0DF"></path><path d="M52.2664 27.2303C51.0549 27.2303 49.9757 26.9866 49.0288 26.4992C48.0818 25.9979 47.3368 25.3156 46.7937 24.4522C46.2646 23.5888 46 22.6001 46 21.4861V12.4834H49.5927V21.2981C49.5927 21.8273 49.7111 22.3077 49.9478 22.7394C50.1846 23.1572 50.5048 23.4914 50.9087 23.742C51.3125 23.9787 51.7651 24.0971 52.2664 24.0971C52.7956 24.0971 53.2621 23.9787 53.6659 23.742C54.0836 23.4914 54.4179 23.1572 54.6685 22.7394C54.9192 22.3077 55.0445 21.8273 55.0445 21.2981V12.4834H58.5119V21.4861C58.5119 22.6001 58.2403 23.5888 57.6973 24.4522C57.1681 25.3156 56.4301 25.9979 55.4831 26.4992C54.5362 26.9866 53.464 27.2303 52.2664 27.2303Z" fill="#0B86FF"></path><path d="M60.8231 27.105V12.4834H63.9981L71.664 22.9274L70.9747 22.8229C70.905 22.3634 70.8493 21.9248 70.8076 21.507C70.7658 21.0892 70.724 20.6784 70.6822 20.2746C70.6544 19.8708 70.6265 19.46 70.5987 19.0422C70.5848 18.6245 70.5708 18.1719 70.5569 17.6845C70.5569 17.1971 70.5569 16.668 70.5569 16.097V12.4834H74.0034V27.105H70.7867L62.7866 16.3268L63.8519 16.473C63.9215 17.1414 63.9772 17.7124 64.019 18.1858C64.0747 18.6454 64.1165 19.0561 64.1443 19.4182C64.1861 19.7803 64.2139 20.1075 64.2279 20.3999C64.2418 20.6924 64.2487 20.9848 64.2487 21.2772C64.2627 21.5557 64.2696 21.8691 64.2696 22.2172V27.105H60.8231Z" fill="#0B86FF"></path><path d="M76.1265 27.105V24.118H78.5913V15.4704H76.1265V12.4834H84.6279V15.4704H82.1422V24.118H84.6279V27.105H76.1265Z" fill="#0B86FF"></path><path d="M48.9844 32.3125V38H47.9141V32.3125H48.9844ZM50.75 32.3125V33.1602H46.168V32.3125H50.75Z" fill="#8B92A1"></path><path d="M52.7184 32V38H51.6833V32H52.7184ZM52.5544 35.7344H52.2497C52.2497 35.4401 52.2888 35.1693 52.3669 34.9219C52.445 34.6745 52.5557 34.4596 52.6989 34.2773C52.8421 34.0924 53.0127 33.9492 53.2106 33.8477C53.4111 33.7461 53.6325 33.6953 53.8747 33.6953C54.083 33.6953 54.2718 33.7253 54.4411 33.7852C54.613 33.8424 54.7601 33.9349 54.8825 34.0625C55.0049 34.1901 55.0986 34.3568 55.1637 34.5625C55.2315 34.7656 55.2653 35.013 55.2653 35.3047V38H54.2262V35.2969C54.2262 35.1016 54.1976 34.9479 54.1403 34.8359C54.083 34.7214 54.001 34.6393 53.8942 34.5898C53.7901 34.5404 53.6611 34.5156 53.5075 34.5156C53.3408 34.5156 53.1976 34.5482 53.0778 34.6133C52.958 34.6758 52.8591 34.763 52.7809 34.875C52.7054 34.987 52.6481 35.1159 52.6091 35.2617C52.5726 35.4076 52.5544 35.5651 52.5544 35.7344Z" fill="#8B92A1"></path><path d="M58.3939 38.0781C58.0736 38.0781 57.7858 38.026 57.5306 37.9219C57.2754 37.8177 57.058 37.6732 56.8783 37.4883C56.7012 37.3008 56.5645 37.0833 56.4681 36.8359C56.3744 36.5859 56.3275 36.3177 56.3275 36.0312V35.875C56.3275 35.5495 56.3744 35.2539 56.4681 34.9883C56.5619 34.7201 56.6947 34.4896 56.8666 34.2969C57.0384 34.1042 57.2442 33.9557 57.4838 33.8516C57.7233 33.7474 57.9877 33.6953 58.2767 33.6953C58.5762 33.6953 58.8405 33.7461 59.0697 33.8477C59.2989 33.9466 59.4903 34.0872 59.6439 34.2695C59.7976 34.4518 59.9134 34.6706 59.9916 34.9258C60.0697 35.1784 60.1088 35.4583 60.1088 35.7656V36.1992H56.7963V35.4883H59.0931V35.4102C59.0879 35.2461 59.0567 35.0964 58.9994 34.9609C58.9421 34.8229 58.8535 34.7135 58.7338 34.6328C58.614 34.5495 58.459 34.5078 58.2689 34.5078C58.1153 34.5078 57.9811 34.5417 57.8666 34.6094C57.7546 34.6745 57.6608 34.7682 57.5853 34.8906C57.5124 35.0104 57.4577 35.1536 57.4213 35.3203C57.3848 35.487 57.3666 35.6719 57.3666 35.875V36.0312C57.3666 36.2083 57.39 36.3724 57.4369 36.5234C57.4864 36.6745 57.558 36.806 57.6517 36.918C57.7481 37.0273 57.8627 37.1133 57.9955 37.1758C58.1309 37.2357 58.2845 37.2656 58.4564 37.2656C58.6726 37.2656 58.8679 37.224 59.0423 37.1406C59.2194 37.0547 59.3731 36.9284 59.5033 36.7617L60.0228 37.3008C59.9343 37.431 59.8145 37.556 59.6634 37.6758C59.515 37.7956 59.3353 37.8932 59.1244 37.9688C58.9134 38.0417 58.6699 38.0781 58.3939 38.0781Z" fill="#8B92A1"></path><path d="M66.6745 32.3125H67.7488V36.0898C67.7488 36.5247 67.655 36.8906 67.4675 37.1875C67.28 37.4818 67.0248 37.7044 66.7019 37.8555C66.379 38.0039 66.0118 38.0781 65.6003 38.0781C65.1836 38.0781 64.8126 38.0039 64.487 37.8555C64.1615 37.7044 63.9063 37.4818 63.7214 37.1875C63.5365 36.8906 63.4441 36.5247 63.4441 36.0898V32.3125H64.5183V36.0898C64.5183 36.3555 64.5626 36.5729 64.6511 36.7422C64.7396 36.9089 64.8646 37.0326 65.0261 37.1133C65.1876 37.194 65.379 37.2344 65.6003 37.2344C65.8243 37.2344 66.0157 37.194 66.1745 37.1133C66.336 37.0326 66.4597 36.9089 66.5456 36.7422C66.6316 36.5729 66.6745 36.3555 66.6745 36.0898V32.3125Z" fill="#8B92A1"></path><path d="M70.0219 34.6758V38H68.9906V33.7734H69.9594L70.0219 34.6758ZM69.8578 35.7344H69.5531C69.5557 35.4271 69.5974 35.1484 69.6781 34.8984C69.7589 34.6484 69.8721 34.4336 70.018 34.2539C70.1664 34.0742 70.3422 33.9362 70.5453 33.8398C70.7484 33.7435 70.975 33.6953 71.225 33.6953C71.4281 33.6953 71.6117 33.724 71.7758 33.7812C71.9398 33.8385 72.0805 33.9297 72.1977 34.0547C72.3174 34.1797 72.4086 34.3438 72.4711 34.5469C72.5362 34.7474 72.5688 34.9948 72.5688 35.2891V38H71.5297V35.2812C71.5297 35.0885 71.501 34.9362 71.4438 34.8242C71.3891 34.7122 71.3083 34.6328 71.2016 34.5859C71.0974 34.5391 70.9685 34.5156 70.8148 34.5156C70.656 34.5156 70.5167 34.5482 70.3969 34.6133C70.2797 34.6758 70.1807 34.763 70.1 34.875C70.0219 34.987 69.962 35.1159 69.9203 35.2617C69.8786 35.4076 69.8578 35.5651 69.8578 35.7344Z" fill="#8B92A1"></path><path d="M74.8927 33.7734V38H73.8575V33.7734H74.8927ZM73.7872 32.668C73.7872 32.5143 73.8393 32.3867 73.9434 32.2852C74.0502 32.1836 74.1934 32.1328 74.3731 32.1328C74.5528 32.1328 74.6947 32.1836 74.7989 32.2852C74.9057 32.3867 74.9591 32.5143 74.9591 32.668C74.9591 32.819 74.9057 32.9453 74.7989 33.0469C74.6947 33.1484 74.5528 33.1992 74.3731 33.1992C74.1934 33.1992 74.0502 33.1484 73.9434 33.0469C73.8393 32.9453 73.7872 32.819 73.7872 32.668Z" fill="#8B92A1"></path><path d="M77.5994 37.2188L78.5837 33.7734H79.6619L78.2127 38H77.5564L77.5994 37.2188ZM76.8806 33.7734L77.8767 37.2266L77.9119 38H77.2517L75.7986 33.7734H76.8806Z" fill="#8B92A1"></path><path d="M82.3686 38.0781C82.0483 38.0781 81.7605 38.026 81.5053 37.9219C81.2501 37.8177 81.0327 37.6732 80.853 37.4883C80.6759 37.3008 80.5392 37.0833 80.4428 36.8359C80.3491 36.5859 80.3022 36.3177 80.3022 36.0312V35.875C80.3022 35.5495 80.3491 35.2539 80.4428 34.9883C80.5366 34.7201 80.6694 34.4896 80.8413 34.2969C81.0131 34.1042 81.2189 33.9557 81.4584 33.8516C81.698 33.7474 81.9623 33.6953 82.2514 33.6953C82.5509 33.6953 82.8152 33.7461 83.0444 33.8477C83.2735 33.9466 83.4649 34.0872 83.6186 34.2695C83.7722 34.4518 83.8881 34.6706 83.9663 34.9258C84.0444 35.1784 84.0834 35.4583 84.0834 35.7656V36.1992H80.7709V35.4883H83.0678V35.4102C83.0626 35.2461 83.0314 35.0964 82.9741 34.9609C82.9168 34.8229 82.8282 34.7135 82.7084 34.6328C82.5886 34.5495 82.4337 34.5078 82.2436 34.5078C82.0899 34.5078 81.9558 34.5417 81.8413 34.6094C81.7293 34.6745 81.6355 34.7682 81.56 34.8906C81.4871 35.0104 81.4324 35.1536 81.3959 35.3203C81.3595 35.487 81.3413 35.6719 81.3413 35.875V36.0312C81.3413 36.2083 81.3647 36.3724 81.4116 36.5234C81.461 36.6745 81.5327 36.806 81.6264 36.918C81.7228 37.0273 81.8373 37.1133 81.9702 37.1758C82.1056 37.2357 82.2592 37.2656 82.4311 37.2656C82.6472 37.2656 82.8426 37.224 83.017 37.1406C83.1941 37.0547 83.3478 36.9284 83.478 36.7617L83.9975 37.3008C83.909 37.431 83.7892 37.556 83.6381 37.6758C83.4897 37.7956 83.31 37.8932 83.0991 37.9688C82.8881 38.0417 82.6446 38.0781 82.3686 38.0781Z" fill="#8B92A1"></path><path d="M86.1261 34.6367V38H85.0948V33.7734H86.0714L86.1261 34.6367ZM87.4113 33.7461L87.3956 34.707C87.3383 34.6966 87.2732 34.6888 87.2003 34.6836C87.13 34.6784 87.0636 34.6758 87.0011 34.6758C86.8422 34.6758 86.7029 34.6979 86.5831 34.7422C86.4633 34.7839 86.3631 34.8451 86.2823 34.9258C86.2042 35.0065 86.1443 35.1055 86.1027 35.2227C86.061 35.3372 86.0376 35.4674 86.0323 35.6133L85.8097 35.5859C85.8097 35.3177 85.837 35.069 85.8917 34.8398C85.9464 34.6107 86.0258 34.4102 86.13 34.2383C86.2342 34.0664 86.3644 33.9336 86.5206 33.8398C86.6795 33.7435 86.8618 33.6953 87.0675 33.6953C87.1248 33.6953 87.186 33.7005 87.2511 33.7109C87.3188 33.7188 87.3722 33.7305 87.4113 33.7461Z" fill="#8B92A1"></path><path d="M90.6219 36.8438C90.6219 36.7552 90.5984 36.6758 90.5516 36.6055C90.5047 36.5352 90.4161 36.4714 90.2859 36.4141C90.1583 36.3542 89.9708 36.2982 89.7234 36.2461C89.5047 36.1992 89.3029 36.1406 89.118 36.0703C88.9331 36 88.7742 35.9154 88.6414 35.8164C88.5086 35.7148 88.4044 35.5964 88.3289 35.4609C88.256 35.3229 88.2195 35.1641 88.2195 34.9844C88.2195 34.8099 88.2573 34.6458 88.3328 34.4922C88.4083 34.3359 88.5177 34.1992 88.6609 34.082C88.8042 33.9622 88.9786 33.8685 89.1844 33.8008C89.3901 33.7305 89.6219 33.6953 89.8797 33.6953C90.2391 33.6953 90.5477 33.7539 90.8055 33.8711C91.0659 33.9883 91.2651 34.1497 91.4031 34.3555C91.5411 34.5586 91.6102 34.7878 91.6102 35.043H90.5789C90.5789 34.931 90.5529 34.8294 90.5008 34.7383C90.4513 34.6471 90.3745 34.5742 90.2703 34.5195C90.1661 34.4622 90.0346 34.4336 89.8758 34.4336C89.7326 34.4336 89.6115 34.457 89.5125 34.5039C89.4161 34.5508 89.3432 34.612 89.2938 34.6875C89.2443 34.763 89.2195 34.8464 89.2195 34.9375C89.2195 35.0052 89.2326 35.0664 89.2586 35.1211C89.2872 35.1732 89.3328 35.2214 89.3953 35.2656C89.4578 35.3099 89.5424 35.3503 89.6492 35.3867C89.7586 35.4232 89.8927 35.4583 90.0516 35.4922C90.3667 35.5547 90.6414 35.638 90.8758 35.7422C91.1128 35.8438 91.2977 35.9792 91.4305 36.1484C91.5633 36.3177 91.6297 36.5339 91.6297 36.7969C91.6297 36.9844 91.5893 37.1562 91.5086 37.3125C91.4279 37.4661 91.3107 37.6003 91.157 37.7148C91.0034 37.8294 90.8198 37.9193 90.6063 37.9844C90.3927 38.0469 90.1518 38.0781 89.8836 38.0781C89.4956 38.0781 89.1674 38.0091 88.8992 37.8711C88.631 37.7305 88.4279 37.5534 88.2898 37.3398C88.1518 37.1237 88.0828 36.8997 88.0828 36.668H89.0711C89.0789 36.832 89.1232 36.9635 89.2039 37.0625C89.2846 37.1615 89.3862 37.2331 89.5086 37.2773C89.6336 37.319 89.7651 37.3398 89.9031 37.3398C90.0594 37.3398 90.1909 37.319 90.2977 37.2773C90.4044 37.2331 90.4852 37.1745 90.5398 37.1016C90.5945 37.026 90.6219 36.9401 90.6219 36.8438Z" fill="#8B92A1"></path><path d="M93.8286 33.7734V38H92.7934V33.7734H93.8286ZM92.7231 32.668C92.7231 32.5143 92.7752 32.3867 92.8794 32.2852C92.9861 32.1836 93.1294 32.1328 93.3091 32.1328C93.4888 32.1328 93.6307 32.1836 93.7348 32.2852C93.8416 32.3867 93.895 32.5143 93.895 32.668C93.895 32.819 93.8416 32.9453 93.7348 33.0469C93.6307 33.1484 93.4888 33.1992 93.3091 33.1992C93.1294 33.1992 92.9861 33.1484 92.8794 33.0469C92.7752 32.9453 92.7231 32.819 92.7231 32.668Z" fill="#8B92A1"></path><path d="M97.133 33.7734V34.5156H94.7111V33.7734H97.133ZM95.3595 32.7344H96.3947V36.7812C96.3947 36.9062 96.4116 37.0026 96.4455 37.0703C96.4793 37.138 96.5301 37.1836 96.5978 37.207C96.6655 37.2305 96.7463 37.2422 96.84 37.2422C96.9077 37.2422 96.9702 37.2383 97.0275 37.2305C97.0848 37.2227 97.133 37.2148 97.172 37.207L97.1759 37.9805C97.09 38.0091 96.9923 38.0326 96.883 38.0508C96.7762 38.069 96.6551 38.0781 96.5197 38.0781C96.2879 38.0781 96.0848 38.0391 95.9103 37.9609C95.7358 37.8802 95.6004 37.7513 95.5041 37.5742C95.4077 37.3945 95.3595 37.1576 95.3595 36.8633V32.7344Z" fill="#8B92A1"></path><path d="M99.3787 37.5312L100.512 33.7734H101.617L99.9217 38.6406C99.8827 38.7448 99.8319 38.8581 99.7694 38.9805C99.7095 39.1029 99.6287 39.2188 99.5272 39.3281C99.4256 39.4401 99.298 39.5312 99.1444 39.6016C98.9933 39.6719 98.8097 39.707 98.5936 39.707C98.4998 39.707 98.4165 39.7005 98.3436 39.6875C98.2707 39.6745 98.1939 39.6576 98.1131 39.6367V38.8633C98.1392 38.8659 98.1691 38.8672 98.203 38.8672C98.2394 38.8698 98.2707 38.8711 98.2967 38.8711C98.4478 38.8711 98.5728 38.8529 98.6717 38.8164C98.7707 38.7826 98.8501 38.7266 98.91 38.6484C98.9725 38.5729 99.0246 38.474 99.0662 38.3516L99.3787 37.5312ZM98.8202 33.7734L99.7772 36.8867L99.9452 37.9766L99.2342 38.1055L97.7069 33.7734H98.8202Z" fill="#8B92A1"></path><path d="M109.433 35.0117V35.3047C109.433 35.7344 109.376 36.1211 109.261 36.4648C109.146 36.806 108.984 37.0964 108.773 37.3359C108.562 37.5755 108.31 37.7591 108.019 37.8867C107.727 38.0143 107.403 38.0781 107.046 38.0781C106.695 38.0781 106.372 38.0143 106.077 37.8867C105.786 37.7591 105.533 37.5755 105.32 37.3359C105.106 37.0964 104.941 36.806 104.823 36.4648C104.706 36.1211 104.648 35.7344 104.648 35.3047V35.0117C104.648 34.5794 104.706 34.1927 104.823 33.8516C104.941 33.5104 105.105 33.2201 105.316 32.9805C105.527 32.7383 105.778 32.5534 106.07 32.4258C106.364 32.2982 106.687 32.2344 107.038 32.2344C107.395 32.2344 107.719 32.2982 108.011 32.4258C108.303 32.5534 108.554 32.7383 108.765 32.9805C108.978 33.2201 109.142 33.5104 109.257 33.8516C109.374 34.1927 109.433 34.5794 109.433 35.0117ZM108.347 35.3047V35.0039C108.347 34.694 108.318 34.4219 108.261 34.1875C108.204 33.9505 108.119 33.7513 108.007 33.5898C107.895 33.4284 107.757 33.3073 107.593 33.2266C107.429 33.1432 107.244 33.1016 107.038 33.1016C106.83 33.1016 106.645 33.1432 106.484 33.2266C106.325 33.3073 106.189 33.4284 106.077 33.5898C105.965 33.7513 105.879 33.9505 105.82 34.1875C105.762 34.4219 105.734 34.694 105.734 35.0039V35.3047C105.734 35.612 105.762 35.8841 105.82 36.1211C105.879 36.3581 105.965 36.5586 106.077 36.7227C106.192 36.8841 106.33 37.0065 106.491 37.0898C106.653 37.1732 106.838 37.2148 107.046 37.2148C107.254 37.2148 107.439 37.1732 107.601 37.0898C107.762 37.0065 107.898 36.8841 108.007 36.7227C108.119 36.5586 108.204 36.3581 108.261 36.1211C108.318 35.8841 108.347 35.612 108.347 35.3047Z" fill="#8B92A1"></path><path d="M111.936 38H110.897V33.3828C110.897 33.0651 110.959 32.7982 111.081 32.582C111.203 32.3633 111.378 32.1979 111.604 32.0859C111.831 31.974 112.098 31.918 112.405 31.918C112.507 31.918 112.603 31.9245 112.694 31.9375C112.788 31.9505 112.88 31.9688 112.972 31.9922L112.952 32.7773C112.903 32.7643 112.848 32.7552 112.788 32.75C112.731 32.7448 112.667 32.7422 112.597 32.7422C112.456 32.7422 112.336 32.7669 112.237 32.8164C112.138 32.8659 112.063 32.9388 112.011 33.0352C111.961 33.1289 111.936 33.2448 111.936 33.3828V38ZM112.792 33.7734V34.5156H110.261V33.7734H112.792Z" fill="#8B92A1"></path><path d="M118.385 32.3125V38H117.315V32.3125H118.385ZM120.151 32.3125V33.1602H115.569V32.3125H120.151Z" fill="#8B92A1"></path><path d="M121.865 34.6367V38H120.834V33.7734H121.81L121.865 34.6367ZM123.15 33.7461L123.135 34.707C123.077 34.6966 123.012 34.6888 122.939 34.6836C122.869 34.6784 122.803 34.6758 122.74 34.6758C122.581 34.6758 122.442 34.6979 122.322 34.7422C122.202 34.7839 122.102 34.8451 122.021 34.9258C121.943 35.0065 121.883 35.1055 121.842 35.2227C121.8 35.3372 121.777 35.4674 121.771 35.6133L121.549 35.5859C121.549 35.3177 121.576 35.069 121.631 34.8398C121.685 34.6107 121.765 34.4102 121.869 34.2383C121.973 34.0664 122.103 33.9336 122.26 33.8398C122.419 33.7435 122.601 33.6953 122.807 33.6953C122.864 33.6953 122.925 33.7005 122.99 33.7109C123.058 33.7188 123.111 33.7305 123.15 33.7461Z" fill="#8B92A1"></path><path d="M126.232 37.1016V35.1523C126.232 35.0091 126.207 34.8854 126.158 34.7812C126.108 34.6771 126.033 34.5964 125.931 34.5391C125.83 34.4818 125.701 34.4531 125.545 34.4531C125.407 34.4531 125.285 34.4766 125.181 34.5234C125.08 34.5703 125.002 34.6367 124.947 34.7227C124.892 34.806 124.865 34.9023 124.865 35.0117H123.83C123.83 34.8372 123.871 34.6719 123.955 34.5156C124.038 34.3568 124.157 34.2161 124.31 34.0938C124.466 33.9688 124.653 33.8711 124.869 33.8008C125.088 33.7305 125.332 33.6953 125.603 33.6953C125.923 33.6953 126.209 33.75 126.459 33.8594C126.711 33.9661 126.909 34.1276 127.052 34.3438C127.198 34.5599 127.271 34.832 127.271 35.1602V37.0039C127.271 37.2148 127.284 37.3958 127.31 37.5469C127.339 37.6953 127.38 37.8242 127.435 37.9336V38H126.384C126.335 37.8932 126.297 37.7578 126.271 37.5938C126.245 37.4271 126.232 37.263 126.232 37.1016ZM126.377 35.4258L126.384 36.0391H125.732C125.571 36.0391 125.429 36.056 125.306 36.0898C125.184 36.1211 125.084 36.168 125.005 36.2305C124.927 36.2904 124.869 36.3633 124.83 36.4492C124.791 36.5326 124.771 36.6276 124.771 36.7344C124.771 36.8385 124.795 36.9323 124.841 37.0156C124.891 37.099 124.961 37.1654 125.052 37.2148C125.146 37.2617 125.255 37.2852 125.38 37.2852C125.563 37.2852 125.722 37.2487 125.857 37.1758C125.992 37.1003 126.098 37.0091 126.173 36.9023C126.249 36.7956 126.289 36.694 126.295 36.5977L126.591 37.043C126.555 37.1497 126.5 37.263 126.427 37.3828C126.354 37.5026 126.261 37.6146 126.146 37.7188C126.032 37.8229 125.893 37.9089 125.732 37.9766C125.571 38.0443 125.383 38.0781 125.17 38.0781C124.896 38.0781 124.651 38.0234 124.435 37.9141C124.219 37.8047 124.048 37.6549 123.923 37.4648C123.798 37.2747 123.736 37.0586 123.736 36.8164C123.736 36.5924 123.778 36.3945 123.861 36.2227C123.944 36.0508 124.068 35.9062 124.232 35.7891C124.396 35.6693 124.599 35.5794 124.841 35.5195C125.086 35.457 125.366 35.4258 125.681 35.4258H126.377Z" fill="#8B92A1"></path><path d="M131.056 37.1016V32H132.095V38H131.158L131.056 37.1016ZM128.341 35.9375V35.8555C128.341 35.5326 128.378 35.2396 128.45 34.9766C128.526 34.7109 128.635 34.4831 128.779 34.293C128.922 34.1029 129.095 33.9557 129.298 33.8516C129.504 33.7474 129.737 33.6953 129.997 33.6953C130.25 33.6953 130.47 33.7461 130.658 33.8477C130.848 33.9492 131.009 34.0938 131.142 34.2812C131.277 34.4688 131.385 34.6914 131.466 34.9492C131.547 35.2044 131.605 35.4857 131.642 35.793V36.0156C131.605 36.3151 131.547 36.5898 131.466 36.8398C131.385 37.0898 131.277 37.3086 131.142 37.4961C131.009 37.681 130.848 37.8242 130.658 37.9258C130.467 38.0273 130.245 38.0781 129.99 38.0781C129.732 38.0781 129.5 38.0247 129.294 37.918C129.091 37.8112 128.918 37.6615 128.775 37.4688C128.634 37.276 128.526 37.0495 128.45 36.7891C128.378 36.5286 128.341 36.2448 128.341 35.9375ZM129.376 35.8555V35.9375C129.376 36.1198 129.392 36.2904 129.423 36.4492C129.454 36.6081 129.505 36.7487 129.575 36.8711C129.646 36.9909 129.736 37.0846 129.845 37.1523C129.957 37.2201 130.092 37.2539 130.251 37.2539C130.454 37.2539 130.621 37.2096 130.751 37.1211C130.884 37.0299 130.987 36.9062 131.06 36.75C131.133 36.5911 131.18 36.4128 131.2 36.2148V35.6016C131.19 35.4453 131.163 35.3008 131.118 35.168C131.077 35.0352 131.017 34.9206 130.939 34.8242C130.863 34.7279 130.769 34.6523 130.658 34.5977C130.546 34.543 130.413 34.5156 130.259 34.5156C130.1 34.5156 129.965 34.5508 129.853 34.6211C129.741 34.6888 129.65 34.7839 129.579 34.9062C129.509 35.0286 129.457 35.1706 129.423 35.332C129.392 35.4935 129.376 35.668 129.376 35.8555Z" fill="#8B92A1"></path><path d="M134.442 33.7734V38H133.407V33.7734H134.442ZM133.337 32.668C133.337 32.5143 133.389 32.3867 133.493 32.2852C133.6 32.1836 133.743 32.1328 133.923 32.1328C134.103 32.1328 134.244 32.1836 134.349 32.2852C134.455 32.3867 134.509 32.5143 134.509 32.668C134.509 32.819 134.455 32.9453 134.349 33.0469C134.244 33.1484 134.103 33.1992 133.923 33.1992C133.743 33.1992 133.6 33.1484 133.493 33.0469C133.389 32.9453 133.337 32.819 133.337 32.668Z" fill="#8B92A1"></path><path d="M136.758 34.6758V38H135.727V33.7734H136.696L136.758 34.6758ZM136.594 35.7344H136.29C136.292 35.4271 136.334 35.1484 136.415 34.8984C136.495 34.6484 136.609 34.4336 136.755 34.2539C136.903 34.0742 137.079 33.9362 137.282 33.8398C137.485 33.7435 137.712 33.6953 137.962 33.6953C138.165 33.6953 138.348 33.724 138.512 33.7812C138.676 33.8385 138.817 33.9297 138.934 34.0547C139.054 34.1797 139.145 34.3438 139.208 34.5469C139.273 34.7474 139.305 34.9948 139.305 35.2891V38H138.266V35.2812C138.266 35.0885 138.238 34.9362 138.18 34.8242C138.126 34.7122 138.045 34.6328 137.938 34.5859C137.834 34.5391 137.705 34.5156 137.551 34.5156C137.393 34.5156 137.253 34.5482 137.133 34.6133C137.016 34.6758 136.917 34.763 136.837 34.875C136.758 34.987 136.699 35.1159 136.657 35.2617C136.615 35.4076 136.594 35.5651 136.594 35.7344Z" fill="#8B92A1"></path><path d="M143.223 33.7734H144.16V37.8711C144.16 38.2539 144.077 38.5781 143.91 38.8438C143.746 39.112 143.516 39.3151 143.219 39.4531C142.922 39.5938 142.577 39.6641 142.184 39.6641C142.015 39.6641 141.831 39.6406 141.633 39.5938C141.438 39.5469 141.249 39.4727 141.067 39.3711C140.887 39.2721 140.737 39.1432 140.618 38.9844L141.082 38.375C141.223 38.5391 141.382 38.6628 141.559 38.7461C141.736 38.832 141.927 38.875 142.133 38.875C142.341 38.875 142.519 38.8359 142.664 38.7578C142.813 38.6823 142.926 38.5703 143.004 38.4219C143.085 38.276 143.125 38.0964 143.125 37.8828V34.7383L143.223 33.7734ZM140.368 35.9375V35.8555C140.368 35.5326 140.407 35.2396 140.485 34.9766C140.563 34.7109 140.675 34.4831 140.821 34.293C140.969 34.1029 141.147 33.9557 141.356 33.8516C141.567 33.7474 141.804 33.6953 142.067 33.6953C142.345 33.6953 142.58 33.7461 142.77 33.8477C142.963 33.9492 143.121 34.0938 143.246 34.2812C143.374 34.4688 143.473 34.6914 143.543 34.9492C143.616 35.2044 143.672 35.4857 143.711 35.793V36.0156C143.675 36.3151 143.616 36.5898 143.535 36.8398C143.457 37.0898 143.353 37.3086 143.223 37.4961C143.093 37.681 142.931 37.8242 142.739 37.9258C142.546 38.0273 142.319 38.0781 142.059 38.0781C141.798 38.0781 141.564 38.0247 141.356 37.918C141.147 37.8112 140.969 37.6615 140.821 37.4688C140.675 37.276 140.563 37.0495 140.485 36.7891C140.407 36.5286 140.368 36.2448 140.368 35.9375ZM141.399 35.8555V35.9375C141.399 36.1198 141.417 36.2904 141.453 36.4492C141.49 36.6081 141.546 36.7487 141.621 36.8711C141.697 36.9909 141.792 37.0846 141.907 37.1523C142.021 37.2201 142.158 37.2539 142.317 37.2539C142.53 37.2539 142.705 37.2096 142.84 37.1211C142.978 37.0299 143.082 36.9062 143.153 36.75C143.226 36.5911 143.272 36.4128 143.293 36.2148V35.6016C143.28 35.4453 143.252 35.3008 143.207 35.168C143.166 35.0352 143.107 34.9206 143.032 34.8242C142.956 34.7279 142.86 34.6523 142.743 34.5977C142.625 34.543 142.486 34.5156 142.325 34.5156C142.168 34.5156 142.032 34.5508 141.914 34.6211C141.797 34.6888 141.701 34.7839 141.625 34.9062C141.55 35.0286 141.493 35.1706 141.453 35.332C141.417 35.4935 141.399 35.668 141.399 35.8555Z" fill="#8B92A1"></path><path fill-rule="evenodd" clip-rule="evenodd" d="M33.8025 26.3045V10.209L17.707 26.3045H33.8025ZM33.8028 26.305H17.7072V42.4005C26.5965 42.4005 33.8028 35.1943 33.8028 26.305Z" fill="#D0DCF6"></path><path fill-rule="evenodd" clip-rule="evenodd" d="M17.707 10.209H1.6115V26.3045H17.707V10.209ZM2.83653 32.4643C2.02765 30.5115 1.61133 28.4185 1.61133 26.3048H17.7068L6.3256 37.686C4.83099 36.1914 3.6454 34.4171 2.83653 32.4643Z" fill="#D0DCF6"></path><path fill-rule="evenodd" clip-rule="evenodd" d="M32.1912 24.6949V8.59961L16.0959 24.6949H16.0957V24.6951V40.7905C24.9849 40.7905 32.1911 33.5844 32.1912 24.6951C32.1912 24.6951 32.1912 24.695 32.1912 24.6949Z" fill="url(#paint1_linear_30_201)"></path><path fill-rule="evenodd" clip-rule="evenodd" d="M16.0959 8.59961H0.000377655V24.6951H16.0959V8.59961ZM1.2252 30.8548C0.416323 28.902 0 26.809 0 24.6953H16.0955L4.71427 36.0765C3.21966 34.5819 2.03407 32.8076 1.2252 30.8548Z" fill="url(#paint2_linear_30_201)"></path><defs><linearGradient id="paint0_linear_30_201" x1="85.625" y1="20.7293" x2="96.8214" y2="20.8604" gradientUnits="userSpaceOnUse"><stop stop-color="#0B86FF"></stop><stop offset="1" stop-color="#01E0F1"></stop></linearGradient><linearGradient id="paint1_linear_30_201" x1="19.3148" y1="20.2688" x2="29.1707" y2="32.9914" gradientUnits="userSpaceOnUse"><stop stop-color="#0BF0FF"></stop><stop offset="1" stop-color="#0B86FF"></stop></linearGradient><linearGradient id="paint2_linear_30_201" x1="16.0959" y1="24.2928" x2="1.45379" y2="9.966" gradientUnits="userSpaceOnUse"><stop stop-color="#0BF0FF"></stop><stop offset="1" stop-color="#0B86FF"></stop></linearGradient></defs></svg> 